<svg viewBox="0 0 19 17.7324" xmlns="http://www.w3.org/2000/svg" xmlns:xlink="http://www.w3.org/1999/xlink" width="19.000000" height="17.732422" fill="none" customFrame="#000000">
	<g id="Group 18545">
		<path id="Ellipse 3" d="M6.5 15.3662C5.61861 15.3662 4.77519 15.1959 3.96975 14.8552C3.19204 14.5263 2.50339 14.062 1.90381 13.4624C1.30422 12.8628 0.83995 12.1742 0.511007 11.3965C0.170336 10.591 -4.17233e-07 9.7476 -4.76837e-07 8.86621C-1.78814e-07 7.98482 0.170336 7.1414 0.511007 6.33596C0.839951 5.55825 1.30422 4.86961 1.90381 4.27002C2.50339 3.67043 3.19204 3.20616 3.96975 2.87722C4.77519 2.53655 5.61861 2.36621 6.5 2.36621L9.5 2.36621L9.5 3.36621L6.5 3.36621C5.7538 3.36621 5.04023 3.51021 4.35931 3.79822C3.70135 4.07651 3.11856 4.46948 2.61091 4.97712C2.10327 5.48477 1.7103 6.06756 1.43201 6.72552C1.144 7.40644 1 8.12001 1 8.86621C1 9.61241 1.144 10.326 1.43201 11.0069C1.7103 11.6649 2.10327 12.2477 2.61091 12.7553C3.11856 13.2629 3.70135 13.6559 4.35931 13.9342C5.04023 14.2222 5.7538 14.3662 6.5 14.3662L6.5 15.3662ZM5.5359 2.86621L5.5359 0.00018549L10.5 2.86621L5.5359 5.73224L5.5359 2.86621L6.5359 2.86621L6.5359 4.86621L6.0359 4.86621L5.7859 4.4332L9.25 2.4332L9.5 2.86621L9.25 3.29922L5.7859 1.29922L6.0359 0.866211L6.5359 0.866211L6.5359 2.86621L5.5359 2.86621ZM6.0359 2.86621L6.0359 0.866211L9.5 2.86621L6.0359 4.86621L6.0359 2.86621Z" fill="rgb(255,255,255)" fill-rule="nonzero" />
		<path id="Ellipse 4" d="M6 12.5C5.11861 12.5 4.27519 12.3297 3.46975 11.989C2.69204 11.6601 2.00339 11.1958 1.40381 10.5962C0.804216 9.9966 0.33995 9.30796 0.0110072 8.53025C-0.329664 7.72481 -0.5 6.88139 -0.5 6C-0.5 5.11861 -0.329664 4.27519 0.0110075 3.46975C0.339951 2.69204 0.804217 2.00339 1.40381 1.40381C2.00339 0.804217 2.69204 0.339951 3.46975 0.0110072C4.27519 -0.329664 5.11861 -0.5 6 -0.5L9 -0.5L9 0.5L6 0.5C5.2538 0.5 4.54023 0.644004 3.85931 0.932012C3.20135 1.2103 2.61856 1.60327 2.11091 2.11091C1.60327 2.61856 1.2103 3.20135 0.932012 3.85931C0.644004 4.54023 0.5 5.2538 0.5 6C0.5 6.7462 0.644004 7.45977 0.932012 8.14069C1.2103 8.79865 1.60327 9.38144 2.11091 9.88909C2.61856 10.3967 3.20135 10.7897 3.85931 11.068C4.54023 11.356 5.2538 11.5 6 11.5L6 12.5ZM5.0359 0L5.0359 -2.86603L10 -5.96046e-08L5.0359 2.86603L5.0359 0L6.0359 0L6.0359 2L5.5359 2L5.2859 1.56699L8.75 -0.433013L9 0L8.75 0.433013L5.2859 -1.56699L5.5359 -2L6.0359 -2L6.0359 0L5.0359 0ZM5.5359 0L5.5359 -2L9 0L5.5359 2L5.5359 0Z" fill="rgb(255,255,255)" fill-rule="nonzero" transform="matrix(-1,0,0,-1,18.5,14.8662)" />
	</g>
</svg>
